<svg xmlns="http://www.w3.org/2000/svg" version="1.1" xmlns:xlink="http://www.w3.org/1999/xlink" xmlns:svgjs="http://svgjs.dev/svgjs" width="1000" height="116" viewBox="0 0 1000 116"><g transform="matrix(1,0,0,1,-0.6060606060606233,-0.031554069119295036)"><svg viewBox="0 0 396 46" data-background-color="#111111" preserveAspectRatio="xMidYMid meet" height="116" width="1000" xmlns="http://www.w3.org/2000/svg" xmlns:xlink="http://www.w3.org/1999/xlink"><g id="tight-bounds" transform="matrix(1,0,0,1,0.2400000000000091,0.012512820512824874)"><svg viewBox="0 0 395.52 45.97497435897436" height="45.97497435897436" width="395.52"><g><svg viewBox="0 0 395.52 45.97497435897436" height="45.97497435897436" width="395.52"><g><svg viewBox="0 0 395.52 45.97497435897436" height="45.97497435897436" width="395.52"><g id="textblocktransform"><svg viewBox="0 0 395.52 45.97497435897436" height="45.97497435897436" width="395.52" id="textblock"><g><svg viewBox="0 0 395.52 45.97497435897436" height="45.97497435897436" width="395.52"><g transform="matrix(1,0,0,1,0,0)"><svg width="395.52" viewBox="1.1 -36.04 314.17999999999995 36.53" height="45.97497435897436" data-palette-color="#ffffff"><path d="M18.33-35.55L18.33 0 12.08 0 12.08-35.55 18.33-35.55ZM29.42-35.55L29.42-30.47 1.1-30.47 1.1-35.55 29.42-35.55ZM40.74-35.55L40.74 0 34.47 0 34.47-35.55 40.74-35.55ZM71.58-5.05L71.58 0 52.8 0 52.8-5.05 71.58-5.05ZM54.56-35.55L54.56 0 48.26 0 48.26-35.55 54.56-35.55ZM69.11-20.8L69.11-15.82 52.8-15.82 52.8-20.8 69.11-20.8ZM71.45-35.55L71.45-30.47 52.8-30.47 52.8-35.55 71.45-35.55ZM104.8-35.55L104.8 0 98.48 0 82.81-25.05 82.81 0 76.51 0 76.51-35.55 82.81-35.55 98.53-10.45 98.53-35.55 104.8-35.55ZM138.05-35.55L138.05 0 131.8 0 131.8-35.55 138.05-35.55ZM149.13-35.55L149.13-30.47 120.81-30.47 120.81-35.55 149.13-35.55ZM153.77-35.55L166.39-35.55Q170.47-35.55 173.35-34.33 176.23-33.11 177.76-30.71 179.28-28.32 179.28-24.83L179.28-24.83Q179.28-22.14 178.31-20.12 177.33-18.09 175.53-16.71 173.74-15.33 171.3-14.58L171.3-14.58 169.39-13.6 158.14-13.6 158.09-18.65 166.44-18.65Q168.61-18.65 170.07-19.41 171.52-20.17 172.24-21.48 172.96-22.8 172.96-24.49L172.96-24.49Q172.96-27.22 171.38-28.85 169.81-30.47 166.39-30.47L166.39-30.47 160.07-30.47 160.07 0 153.77 0 153.77-35.55ZM173.96 0L165.66-15.94 172.28-15.97 180.7-0.32 180.7 0 173.96 0ZM205.06-35.55L211.36-35.55 211.36-11.87Q211.36-7.79 209.59-5.04 207.82-2.29 204.79-0.9 201.76 0.49 198.03 0.49L198.03 0.49Q194.2 0.49 191.18-0.9 188.17-2.29 186.44-5.04 184.72-7.79 184.72-11.87L184.72-11.87 184.72-35.55 191-35.55 191-11.87Q191-9.35 191.85-7.74 192.71-6.13 194.29-5.35 195.88-4.57 198.03-4.57L198.03-4.57Q200.23-4.57 201.79-5.35 203.35-6.13 204.21-7.74 205.06-9.35 205.06-11.87L205.06-11.87 205.06-35.55ZM246.39-18.68L246.39-16.85Q246.39-11.45 244.54-7.57 242.68-3.69 239.37-1.6 236.06 0.49 231.62 0.49L231.62 0.49Q227.27 0.49 223.92-1.6 220.56-3.69 218.67-7.57 216.78-11.45 216.78-16.85L216.78-16.85 216.78-18.68Q216.78-24.07 218.66-27.97 220.54-31.86 223.88-33.95 227.23-36.04 231.57-36.04L231.57-36.04Q236.02-36.04 239.34-33.95 242.66-31.86 244.52-27.97 246.39-24.07 246.39-18.68L246.39-18.68ZM240.07-16.85L240.07-18.73Q240.07-22.66 239.07-25.35 238.07-28.05 236.16-29.43 234.26-30.81 231.57-30.81L231.57-30.81Q228.94-30.81 227.04-29.43 225.15-28.05 224.14-25.35 223.12-22.66 223.12-18.73L223.12-18.73 223.12-16.85Q223.12-12.92 224.15-10.21 225.18-7.5 227.08-6.1 228.98-4.71 231.62-4.71L231.62-4.71Q234.33-4.71 236.22-6.1 238.11-7.5 239.09-10.21 240.07-12.92 240.07-16.85L240.07-16.85ZM280.71-35.55L280.71 0 274.39 0 258.72-25.05 258.72 0 252.42 0 252.42-35.55 258.72-35.55 274.44-10.45 274.44-35.55 280.71-35.55ZM315.28-18.29L315.28-4.57Q314.5-3.59 312.91-2.4 311.33-1.22 308.68-0.37 306.03 0.49 302.1 0.49L302.1 0.49Q297.61 0.49 294.18-1.51 290.75-3.52 288.82-7.35 286.89-11.18 286.89-16.58L286.89-16.58 286.89-18.97Q286.89-24.39 288.67-28.21 290.45-32.03 293.74-34.03 297.02-36.04 301.56-36.04L301.56-36.04Q305.96-36.04 308.85-34.57 311.74-33.11 313.31-30.53 314.87-27.95 315.26-24.61L315.26-24.61 309.08-24.61Q308.81-26.46 307.98-27.89 307.15-29.32 305.61-30.15 304.08-30.98 301.68-30.98L301.68-30.98Q298.88-30.98 297-29.58 295.12-28.17 294.19-25.5 293.26-22.83 293.26-19.02L293.26-19.02 293.26-16.58Q293.26-12.72 294.35-10.05 295.43-7.37 297.46-5.97 299.49-4.57 302.34-4.57L302.34-4.57Q304.39-4.57 305.71-4.91 307.03-5.25 307.8-5.74 308.57-6.23 308.98-6.67L308.98-6.67 308.98-13.55 301.71-13.55 301.71-18.29 315.28-18.29Z" opacity="1" transform="matrix(1,0,0,1,0,0)" fill="#ffffff" class="wordmark-text-0" data-fill-palette-color="primary" id="text-0"></path></svg></g></svg></g></svg></g></svg></g></svg></g><defs></defs></svg><rect width="395.52" height="45.97497435897436" fill="none" stroke="none" visibility="hidden"></rect></g></svg></g></svg>