<svg xmlns="http://www.w3.org/2000/svg" version="1.1" xmlns:xlink="http://www.w3.org/1999/xlink" xmlns:svgjs="http://svgjs.dev/svgjs" width="2000" height="1247" viewBox="0 0 2000 1247"><g transform="matrix(1,0,0,1,-1.2121212121212466,0.504858299595071)"><svg viewBox="0 0 396 247" data-background-color="#001f3f" preserveAspectRatio="xMidYMid meet" height="1247" width="2000" xmlns="http://www.w3.org/2000/svg" xmlns:xlink="http://www.w3.org/1999/xlink"><g id="tight-bounds" transform="matrix(1,0,0,1,0.2400000000000091,-0.09999999999999432)"><svg viewBox="0 0 395.52 247.2" height="247.2" width="395.52"><g><svg></svg></g><g><svg viewBox="0 0 395.52 247.2" height="247.2" width="395.52"><g transform="matrix(1,0,0,1,98.61476394849784,37.08)"><svg viewBox="0 0 198.2904721030043 173.04" height="173.04" width="198.2904721030043"><g><svg viewBox="0 0 198.2904721030043 173.04" height="173.04" width="198.2904721030043"><g><svg viewBox="0 0 198.2904721030043 173.04" height="173.04" width="198.2904721030043"><g id="textblocktransform"><svg viewBox="0 0 198.2904721030043 173.04" height="173.04" width="198.2904721030043" id="textblock"><g><svg viewBox="0 0 198.2904721030043 173.04" height="173.04" width="198.2904721030043"><g transform="matrix(1,0,0,1,0,0)"><svg width="198.2904721030043" viewBox="10.800000190734863 -36.900001525878906 133.5 113.5" height="173.04" data-palette-color="#ffffff"><svg></svg><svg></svg><g class="wordmark-text-0" data-fill-palette-color="primary" id="text-0"><path xmlns="http://www.w3.org/2000/svg" d="M14.95-30.3v0c-1.333 0-2.357-0.377-3.07-1.13-0.72-0.747-1.08-1.653-1.08-2.72v0c0-0.267 0.043-0.583 0.13-0.95 0.08-0.367 0.187-0.683 0.32-0.95v0c0.433 0.2 1.077 0.34 1.93 0.42 0.847 0.087 1.837 0.13 2.97 0.13v0c1.7 0 3.627-0.077 5.78-0.23 2.147-0.147 4.203-0.303 6.17-0.47 1.967-0.167 3.7-0.327 5.2-0.48 1.5-0.147 2.467-0.22 2.9-0.22v0c1.233 0 2.127 0.46 2.68 1.38 0.547 0.913 0.953 2.137 1.22 3.67v0c-0.867-0.067-1.727-0.123-2.58-0.17-0.847-0.053-1.57-0.08-2.17-0.08v0c-1.067 0-2.14 0.033-3.22 0.1-1.087 0.067-2.18 0.167-3.28 0.3v0c-0.467 0.967-0.983 2.107-1.55 3.42-0.567 1.32-1.123 2.697-1.67 4.13-0.553 1.433-1.08 2.857-1.58 4.27-0.5 1.42-0.933 2.697-1.3 3.83v0c-0.733 2.2-1.373 4.233-1.92 6.1-0.553 1.867-1.037 3.607-1.45 5.22-0.42 1.62-0.78 3.163-1.08 4.63-0.3 1.467-0.567 2.9-0.8 4.3v0c-2.233-0.333-4.1-1.733-5.6-4.2v0c0.267-1.033 0.593-2.16 0.98-3.38 0.38-1.213 0.83-2.597 1.35-4.15 0.513-1.547 1.12-3.303 1.82-5.27 0.7-1.967 1.5-4.2 2.4-6.7v0c0.333-0.933 0.683-1.91 1.05-2.93 0.367-1.013 0.727-2.02 1.08-3.02 0.347-1 0.663-1.967 0.95-2.9 0.28-0.933 0.52-1.783 0.72-2.55v0c-1.4 0.167-2.723 0.307-3.97 0.42-1.253 0.12-2.363 0.18-3.33 0.18zM32.25-3.35v0c0-0.3 0.027-0.677 0.08-1.13 0.047-0.447 0.137-1.047 0.27-1.8 0.133-0.747 0.31-1.653 0.53-2.72 0.213-1.067 0.487-2.35 0.82-3.85v0c0.067-0.333 0.217-0.867 0.45-1.6 0.233-0.733 0.543-1.51 0.93-2.33 0.38-0.813 0.847-1.603 1.4-2.37 0.547-0.767 1.203-1.333 1.97-1.7v0c0.567 0.133 1.317 0.473 2.25 1.02 0.933 0.553 1.733 1.313 2.4 2.28v0c-0.767 0.867-1.407 1.733-1.92 2.6-0.52 0.867-0.987 1.767-1.4 2.7-0.42 0.933-0.803 1.9-1.15 2.9-0.353 1-0.747 2.05-1.18 3.15v0c-0.367 0.933-0.7 1.89-1 2.87-0.3 0.987-0.467 1.847-0.5 2.58v0c0 0.6-0.007 1.027-0.02 1.28-0.02 0.247-0.113 0.37-0.28 0.37v0c-0.133 0-0.4-0.083-0.8-0.25-0.4-0.167-0.807-0.427-1.22-0.78-0.42-0.347-0.797-0.787-1.13-1.32-0.333-0.533-0.5-1.167-0.5-1.9zM41.8-25.05v0c0-0.2 0.05-0.5 0.15-0.9v0c-0.167-0.167-0.307-0.417-0.42-0.75-0.12-0.333-0.18-0.633-0.18-0.9v0c0-0.3 0.043-0.71 0.13-1.23 0.08-0.513 0.187-1.07 0.32-1.67 0.133-0.6 0.3-1.227 0.5-1.88 0.2-0.647 0.4-1.237 0.6-1.77v0c0.4 0 0.893 0.107 1.48 0.32 0.58 0.22 1.17 0.503 1.77 0.85 0.6 0.353 1.15 0.737 1.65 1.15 0.5 0.42 0.883 0.813 1.15 1.18v0c-0.367 0.367-0.85 0.873-1.45 1.52-0.6 0.653-1.183 1.337-1.75 2.05-0.567 0.72-1.083 1.397-1.55 2.03-0.467 0.633-0.767 1.083-0.9 1.35v0c-0.4-0.067-0.75-0.243-1.05-0.53-0.3-0.28-0.45-0.553-0.45-0.82zM61.9-20.7v0c-0.133 2.067-0.5 3.84-1.1 5.32-0.6 1.487-1.457 2.787-2.57 3.9-1.12 1.12-2.48 2.13-4.08 3.03-1.6 0.9-3.467 1.767-5.6 2.6v0c0 0.2-0.007 0.407-0.02 0.62-0.02 0.22-0.03 0.447-0.03 0.68v0c0 0.433 0.033 0.883 0.1 1.35 0.067 0.467 0.183 0.9 0.35 1.3 0.167 0.4 0.4 0.723 0.7 0.97 0.3 0.253 0.683 0.38 1.15 0.38v0c0.9 0 1.783-0.2 2.65-0.6 0.867-0.4 1.693-0.893 2.48-1.48 0.78-0.58 1.513-1.213 2.2-1.9 0.68-0.68 1.287-1.303 1.82-1.87v0c0.333 0.3 0.617 0.583 0.85 0.85v0c-1.5 2-3.14 3.657-4.92 4.97-1.787 1.32-3.48 2.163-5.08 2.53v0c-2.3-0.267-4.09-1.11-5.37-2.53-1.287-1.413-1.93-3.12-1.93-5.12v0c0-1.367 0.193-2.76 0.58-4.18 0.38-1.413 0.913-2.78 1.6-4.1 0.68-1.313 1.48-2.553 2.4-3.72 0.913-1.167 1.897-2.183 2.95-3.05 1.047-0.867 2.13-1.55 3.25-2.05 1.113-0.5 2.22-0.75 3.32-0.75v0c1.533 0.2 2.967 1.15 4.3 2.85zM58.45-19.05v0c-0.9 0.133-1.833 0.5-2.8 1.1-0.967 0.6-1.873 1.4-2.72 2.4-0.853 1-1.63 2.167-2.33 3.5-0.7 1.333-1.25 2.767-1.65 4.3v0c2.667-1.333 4.883-2.977 6.65-4.93 1.767-1.947 2.717-4.07 2.85-6.37zM72.3-24.25v0c0.867 0.267 1.683 0.857 2.45 1.77 0.767 0.92 1.333 1.93 1.7 3.03v0c-0.367 0.9-0.933 1.983-1.7 3.25-0.767 1.267-1.533 2.557-2.3 3.87-0.767 1.32-1.457 2.57-2.07 3.75-0.62 1.187-0.98 2.163-1.08 2.93v0c0.533-0.567 1.127-1.227 1.78-1.98 0.647-0.747 1.28-1.497 1.9-2.25 0.613-0.747 1.187-1.43 1.72-2.05 0.533-0.613 0.95-1.07 1.25-1.37v0c0.633-0.667 1.383-1.443 2.25-2.33 0.867-0.88 1.777-1.713 2.73-2.5 0.947-0.78 1.903-1.447 2.87-2 0.967-0.547 1.85-0.82 2.65-0.82v0c0.867 0 1.593 0.29 2.18 0.87 0.58 0.587 1.037 1.197 1.37 1.83v0c0 0.067-0.123 0.157-0.37 0.27-0.253 0.12-0.613 0.447-1.08 0.98v0c-0.467 0.6-0.99 1.423-1.57 2.47-0.587 1.053-1.153 2.187-1.7 3.4-0.553 1.22-1.013 2.463-1.38 3.73-0.367 1.267-0.55 2.417-0.55 3.45v0c0 0.833 0.11 1.367 0.33 1.6 0.213 0.233 0.52 0.35 0.92 0.35v0c0.367 0 0.75-0.083 1.15-0.25 0.4-0.167 0.717-0.25 0.95-0.25v0c0.133 0.067 0.243 0.207 0.33 0.42 0.08 0.22 0.12 0.413 0.12 0.58v0c-0.267 0.233-0.583 0.467-0.95 0.7-0.367 0.233-0.75 0.45-1.15 0.65-0.4 0.2-0.79 0.367-1.17 0.5-0.387 0.133-0.73 0.2-1.03 0.2v0c-0.967 0-1.757-0.14-2.37-0.42-0.62-0.287-1.103-0.663-1.45-1.13-0.353-0.467-0.597-1.027-0.73-1.68-0.133-0.647-0.2-1.337-0.2-2.07v0c0-0.4 0.033-0.85 0.1-1.35 0.067-0.5 0.2-1.093 0.4-1.78 0.2-0.68 0.483-1.497 0.85-2.45 0.367-0.947 0.833-2.087 1.4-3.42v0c-0.067 0-0.517 0.233-1.35 0.7-0.833 0.467-1.733 1.183-2.7 2.15v0c-1.567 1.5-2.973 2.983-4.22 4.45-1.253 1.467-2.53 3.1-3.83 4.9v0c-0.733 1.033-1.373 1.907-1.92 2.62-0.553 0.72-1.03 1.197-1.43 1.43v0c-0.7-0.4-1.217-0.957-1.55-1.67-0.333-0.72-0.583-1.463-0.75-2.23v0c0-0.633 0.093-1.433 0.28-2.4 0.18-0.967 0.43-2.043 0.75-3.23 0.313-1.18 0.703-2.42 1.17-3.72 0.467-1.3 0.983-2.6 1.55-3.9v0c1.267-2.933 2.427-5.233 3.48-6.9 1.047-1.667 1.703-2.567 1.97-2.7z" fill="#ffffff" fill-rule="nonzero" stroke="none" stroke-width="1" stroke-linecap="butt" stroke-linejoin="miter" stroke-miterlimit="10" stroke-dasharray="" stroke-dashoffset="0" font-family="none" font-weight="none" font-size="none" text-anchor="none" style="mix-blend-mode: normal" data-fill-palette-color="primary" opacity="1"></path><path xmlns="http://www.w3.org/2000/svg" d="M14.95 27.95v0c-1.333 0-2.357-0.377-3.07-1.13-0.72-0.747-1.08-1.653-1.08-2.72v0c0-0.267 0.043-0.583 0.13-0.95 0.08-0.367 0.187-0.683 0.32-0.95v0c0.433 0.2 1.077 0.34 1.93 0.42 0.847 0.087 1.837 0.13 2.97 0.13v0c1.7 0 3.627-0.077 5.78-0.23 2.147-0.147 4.203-0.303 6.17-0.47 1.967-0.167 3.7-0.327 5.2-0.48 1.5-0.147 2.467-0.22 2.9-0.22v0c1.233 0 2.127 0.46 2.68 1.38 0.547 0.913 0.953 2.137 1.22 3.67v0c-0.867-0.067-1.727-0.123-2.58-0.17-0.847-0.053-1.57-0.08-2.17-0.08v0c-1.067 0-2.14 0.033-3.22 0.1-1.087 0.067-2.18 0.167-3.28 0.3v0c-0.467 0.967-0.983 2.107-1.55 3.42-0.567 1.32-1.123 2.697-1.67 4.13-0.553 1.433-1.08 2.857-1.58 4.27-0.5 1.42-0.933 2.697-1.3 3.83v0c-0.733 2.2-1.373 4.233-1.92 6.1-0.553 1.867-1.037 3.607-1.45 5.22-0.42 1.62-0.78 3.163-1.08 4.63-0.3 1.467-0.567 2.9-0.8 4.3v0c-2.233-0.333-4.1-1.733-5.6-4.2v0c0.267-1.033 0.593-2.16 0.98-3.38 0.38-1.213 0.83-2.597 1.35-4.15 0.513-1.547 1.12-3.303 1.82-5.27 0.7-1.967 1.5-4.2 2.4-6.7v0c0.333-0.933 0.683-1.91 1.05-2.93 0.367-1.013 0.727-2.02 1.08-3.02 0.347-1 0.663-1.967 0.95-2.9 0.28-0.933 0.52-1.783 0.72-2.55v0c-1.4 0.167-2.723 0.307-3.97 0.42-1.253 0.12-2.363 0.18-3.33 0.18zM28.15 57.25v0c0.167-0.967 0.457-2.243 0.87-3.83 0.42-1.58 0.913-3.263 1.48-5.05 0.567-1.78 1.167-3.57 1.8-5.37 0.633-1.8 1.25-3.417 1.85-4.85v0c0.433-1.033 0.817-1.843 1.15-2.43 0.333-0.58 0.7-1.07 1.1-1.47v0c0.467 0.067 0.95 0.183 1.45 0.35 0.5 0.167 0.983 0.367 1.45 0.6 0.467 0.233 0.883 0.473 1.25 0.72 0.367 0.253 0.65 0.497 0.85 0.73v0c-0.9 1.067-1.693 2.283-2.38 3.65-0.68 1.367-1.37 3.117-2.07 5.25v0c1.8-1.6 3.393-3.133 4.78-4.6 1.38-1.467 2.67-3.1 3.87-4.9v0c0.2-0.167 0.55-0.25 1.05-0.25v0c0.467 0 0.917 0.073 1.35 0.22 0.433 0.153 0.733 0.363 0.9 0.63v0c-0.6 1.6-0.9 3.183-0.9 4.75v0c0 1.467 0.217 2.567 0.65 3.3v0c-0.033 0.2-0.257 0.583-0.67 1.15-0.42 0.567-0.88 1.1-1.38 1.6v0c-0.9-0.467-1.7-1.11-2.4-1.93-0.7-0.813-1.217-1.703-1.55-2.67v0c-1.567 1.1-2.9 2.173-4 3.22-1.1 1.053-2.04 2.22-2.82 3.5-0.787 1.287-1.453 2.763-2 4.43-0.553 1.667-1.08 3.65-1.58 5.95v0c-0.3-0.033-0.657-0.14-1.07-0.32-0.42-0.187-0.837-0.413-1.25-0.68-0.42-0.267-0.797-0.55-1.13-0.85-0.333-0.3-0.55-0.583-0.65-0.85zM63.1 57.15v0c-0.633-0.533-1.057-1.2-1.27-2-0.22-0.8-0.33-1.483-0.33-2.05v0c0-0.7 0.083-1.3 0.25-1.8v0c-0.133 0-0.433 0.267-0.9 0.8-0.467 0.533-0.973 1.167-1.52 1.9-0.553 0.733-1.097 1.45-1.63 2.15-0.533 0.7-0.933 1.217-1.2 1.55v0c-0.433 0.467-0.84 0.833-1.22 1.1-0.387 0.267-0.697 0.417-0.93 0.45v0c-0.533-0.033-1.09-0.14-1.67-0.32-0.587-0.187-1.137-0.447-1.65-0.78-0.52-0.333-0.97-0.733-1.35-1.2-0.387-0.467-0.647-1-0.78-1.6v0c0-0.933 0.027-1.7 0.08-2.3 0.047-0.6 0.153-1.25 0.32-1.95v0c0.3-1.267 0.743-2.7 1.33-4.3 0.58-1.6 1.253-3.177 2.02-4.73 0.767-1.547 1.627-2.997 2.58-4.35 0.947-1.347 1.953-2.403 3.02-3.17v0c0.3 0 0.65 0.023 1.05 0.07 0.4 0.053 0.81 0.147 1.23 0.28 0.413 0.133 0.813 0.29 1.2 0.47 0.38 0.187 0.703 0.43 0.97 0.73v0c-0.3 0.333-1.057 1.45-2.27 3.35-1.22 1.9-2.58 4.633-4.08 8.2v0c-0.167 0.367-0.367 0.9-0.6 1.6-0.233 0.7-0.467 1.433-0.7 2.2-0.233 0.767-0.423 1.517-0.57 2.25-0.153 0.733-0.23 1.317-0.23 1.75v0c0 0.267 0.043 0.467 0.13 0.6 0.08 0.133 0.153 0.233 0.22 0.3v0c0.5-0.2 1.133-0.75 1.9-1.65 0.767-0.9 1.833-2.283 3.2-4.15v0c0.333-0.467 0.727-1 1.18-1.6 0.447-0.6 0.903-1.243 1.37-1.93 0.467-0.68 0.91-1.387 1.33-2.12 0.413-0.733 0.753-1.467 1.02-2.2v0c0.133-0.4 0.31-0.877 0.53-1.43 0.213-0.547 0.48-1.12 0.8-1.72 0.313-0.6 0.68-1.21 1.1-1.83 0.413-0.613 0.903-1.187 1.47-1.72v0c0.433 0 0.9 0.05 1.4 0.15 0.5 0.1 0.977 0.223 1.43 0.37 0.447 0.153 0.837 0.32 1.17 0.5 0.333 0.187 0.583 0.38 0.75 0.58v0c-0.6 1.467-1.267 2.917-2 4.35-0.733 1.433-1.417 2.84-2.05 4.22-0.633 1.387-1.167 2.763-1.6 4.13-0.433 1.367-0.65 2.7-0.65 4v0c0 0.7 0.06 1.307 0.18 1.82 0.113 0.52 0.237 0.953 0.37 1.3 0.133 0.353 0.26 0.647 0.38 0.88 0.113 0.233 0.17 0.433 0.17 0.6v0c0 0.033-0.033 0.083-0.1 0.15v0c-0.033 0.033-0.067 0.05-0.1 0.05v0c-0.233 0-0.533-0.05-0.9-0.15-0.367-0.1-0.773-0.24-1.22-0.42-0.453-0.187-0.903-0.397-1.35-0.63-0.453-0.233-0.88-0.483-1.28-0.75zM79.85 60v0c-1.9-0.2-3.417-1.033-4.55-2.5-1.133-1.467-1.7-3.333-1.7-5.6v0c0-1.333 0.2-2.717 0.6-4.15 0.4-1.433 0.967-2.827 1.7-4.18 0.733-1.347 1.6-2.62 2.6-3.82 1-1.2 2.083-2.233 3.25-3.1v0c1.833-1.367 3.55-2.05 5.15-2.05v0c1.067 0.567 2.117 1.75 3.15 3.55v0c0.167 0 0.317-0.01 0.45-0.03 0.133-0.013 0.283-0.02 0.45-0.02v0c1.767 0 2.65 1.567 2.65 4.7v0c0 2.1-0.34 4.093-1.02 5.98-0.687 1.88-1.637 3.587-2.85 5.12-1.22 1.533-2.67 2.823-4.35 3.87-1.687 1.053-3.53 1.797-5.53 2.23zM82.4 44.25v0c-0.567 0.767-1.1 1.6-1.6 2.5-0.5 0.9-0.933 1.807-1.3 2.72-0.367 0.92-0.65 1.803-0.85 2.65-0.2 0.853-0.3 1.613-0.3 2.28v0c0 0.8 0.133 1.567 0.4 2.3 0.267 0.733 0.567 1.15 0.9 1.25v0c1.5-0.333 2.877-0.96 4.13-1.88 1.247-0.913 2.33-2.053 3.25-3.42 0.913-1.367 1.63-2.917 2.15-4.65 0.513-1.733 0.77-3.583 0.77-5.55v0c0-0.867-0.05-1.55-0.15-2.05-0.1-0.5-0.267-0.933-0.5-1.3v0c-1.467 0.433-2.773 1.133-3.92 2.1-1.153 0.967-2.147 1.983-2.98 3.05zM104.1 34v0c0.867 0.267 1.683 0.857 2.45 1.77 0.767 0.92 1.333 1.93 1.7 3.03v0c-0.367 0.9-0.933 1.983-1.7 3.25-0.767 1.267-1.533 2.557-2.3 3.87-0.767 1.32-1.457 2.57-2.07 3.75-0.62 1.187-0.98 2.163-1.08 2.93v0c0.533-0.567 1.127-1.227 1.78-1.98 0.647-0.747 1.28-1.497 1.9-2.25 0.613-0.747 1.187-1.43 1.72-2.05 0.533-0.613 0.95-1.07 1.25-1.37v0c0.633-0.667 1.383-1.443 2.25-2.33 0.867-0.88 1.777-1.713 2.73-2.5 0.947-0.78 1.903-1.447 2.87-2 0.967-0.547 1.85-0.82 2.65-0.82v0c0.867 0 1.593 0.29 2.18 0.87 0.58 0.587 1.037 1.197 1.37 1.83v0c0 0.067-0.123 0.157-0.37 0.27-0.253 0.12-0.613 0.447-1.08 0.98v0c-0.467 0.6-0.99 1.423-1.57 2.47-0.587 1.053-1.153 2.187-1.7 3.4-0.553 1.22-1.013 2.463-1.38 3.73-0.367 1.267-0.55 2.417-0.55 3.45v0c0 0.833 0.11 1.367 0.33 1.6 0.213 0.233 0.52 0.35 0.92 0.35v0c0.367 0 0.75-0.083 1.15-0.25 0.4-0.167 0.717-0.25 0.95-0.25v0c0.133 0.067 0.243 0.207 0.33 0.42 0.08 0.22 0.12 0.413 0.12 0.58v0c-0.267 0.233-0.583 0.467-0.95 0.7-0.367 0.233-0.75 0.45-1.15 0.65-0.4 0.2-0.79 0.367-1.17 0.5-0.387 0.133-0.73 0.2-1.03 0.2v0c-0.967 0-1.757-0.14-2.37-0.42-0.62-0.287-1.103-0.663-1.45-1.13-0.353-0.467-0.597-1.027-0.73-1.68-0.133-0.647-0.2-1.337-0.2-2.07v0c0-0.4 0.033-0.85 0.1-1.35 0.067-0.5 0.2-1.093 0.4-1.78 0.2-0.68 0.483-1.497 0.85-2.45 0.367-0.947 0.833-2.087 1.4-3.42v0c-0.067 0-0.517 0.233-1.35 0.7-0.833 0.467-1.733 1.183-2.7 2.15v0c-1.567 1.5-2.973 2.983-4.22 4.45-1.253 1.467-2.53 3.1-3.83 4.9v0c-0.733 1.033-1.373 1.907-1.92 2.62-0.553 0.72-1.03 1.197-1.43 1.43v0c-0.7-0.4-1.217-0.957-1.55-1.67-0.333-0.72-0.583-1.463-0.75-2.23v0c0-0.633 0.093-1.433 0.28-2.4 0.18-0.967 0.43-2.043 0.75-3.23 0.313-1.18 0.703-2.42 1.17-3.72 0.467-1.3 0.983-2.6 1.55-3.9v0c1.267-2.933 2.427-5.233 3.48-6.9 1.047-1.667 1.703-2.567 1.97-2.7zM112.9 73.15v0c0-0.2 0.067-0.383 0.2-0.55 0.133-0.167 0.283-0.333 0.45-0.5v0c0.4 0.367 0.743 0.65 1.03 0.85 0.28 0.2 0.547 0.367 0.8 0.5 0.247 0.133 0.503 0.217 0.77 0.25 0.267 0.033 0.583 0.05 0.95 0.05v0c1.733 0 3.383-0.457 4.95-1.37 1.567-0.92 3.043-2.247 4.43-3.98 1.38-1.733 2.637-3.85 3.77-6.35 1.133-2.5 2.133-5.333 3-8.5v0c-0.4 0.4-0.89 0.84-1.47 1.32-0.587 0.487-1.197 0.947-1.83 1.38-0.633 0.433-1.257 0.833-1.87 1.2-0.62 0.367-1.147 0.633-1.58 0.8v0c-0.567-0.1-1.09-0.343-1.57-0.73-0.487-0.38-0.913-0.853-1.28-1.42-0.367-0.567-0.65-1.21-0.85-1.93-0.2-0.713-0.3-1.47-0.3-2.27v0c0-1.3 0.243-2.633 0.73-4 0.48-1.367 1.12-2.71 1.92-4.03 0.8-1.313 1.743-2.553 2.83-3.72 1.08-1.167 2.23-2.183 3.45-3.05 1.213-0.867 2.447-1.56 3.7-2.08 1.247-0.513 2.47-0.77 3.67-0.77v0c1.167 0 2.043 0.24 2.63 0.72 0.58 0.487 1.003 1.313 1.27 2.48v0c-0.367-0.2-0.833-0.3-1.4-0.3v0c-0.8 0-1.723 0.317-2.77 0.95-1.053 0.633-2.12 1.457-3.2 2.47-1.087 1.02-2.163 2.187-3.23 3.5-1.067 1.32-2.007 2.663-2.82 4.03-0.82 1.367-1.487 2.7-2 4-0.52 1.3-0.78 2.467-0.78 3.5v0c0 0.233 0.017 0.373 0.05 0.42 0.033 0.053 0.083 0.08 0.15 0.08v0c0.3 0 0.71-0.167 1.23-0.5 0.513-0.333 1.097-0.76 1.75-1.28 0.647-0.513 1.32-1.113 2.02-1.8 0.7-0.68 1.367-1.37 2-2.07v0c1.433-1.6 2.743-3.393 3.93-5.38 1.18-1.98 2.12-3.903 2.82-5.77v0c0.9 0.067 1.7 0.217 2.4 0.45 0.7 0.233 1.183 0.483 1.45 0.75v0c-1.133 2.6-2.04 4.783-2.72 6.55-0.687 1.767-1.28 3.333-1.78 4.7v0c-0.9 2.4-1.74 4.593-2.52 6.58-0.787 1.98-1.587 3.813-2.4 5.5-0.82 1.68-1.707 3.247-2.66 4.7-0.947 1.447-2.02 2.837-3.22 4.17v0c-0.567 0.633-1.207 1.193-1.92 1.68-0.72 0.48-1.453 0.887-2.2 1.22-0.753 0.333-1.487 0.583-2.2 0.75-0.72 0.167-1.38 0.25-1.98 0.25v0c-0.8 0-1.617-0.093-2.45-0.28-0.833-0.18-1.607-0.43-2.32-0.75-0.72-0.313-1.347-0.677-1.88-1.09-0.533-0.42-0.917-0.863-1.15-1.33z" fill="#ffffff" fill-rule="nonzero" stroke="none" stroke-width="1" stroke-linecap="butt" stroke-linejoin="miter" stroke-miterlimit="10" stroke-dasharray="" stroke-dashoffset="0" font-family="none" font-weight="none" font-size="none" text-anchor="none" style="mix-blend-mode: normal" data-fill-palette-color="primary" opacity="1"></path></g></svg></g></svg></g></svg></g></svg></g></svg></g></svg></g><g><path xmlns="http://www.w3.org/2000/svg" d="M0 247.2v-247.2h395.52v247.2zM388.119 239.799v-232.398h-380.718v232.398z" fill="#ffffff" fill-rule="nonzero" stroke="none" stroke-width="1" stroke-linecap="butt" stroke-linejoin="miter" stroke-miterlimit="10" stroke-dasharray="" stroke-dashoffset="0" font-family="none" font-weight="none" font-size="none" text-anchor="none" style="mix-blend-mode: normal" data-fill-palette-color="tertiary"></path></g></svg></g><defs></defs></svg><rect width="395.52" height="247.2" fill="none" stroke="none" visibility="hidden"></rect></g></svg></g></svg>